<?xml version="1.0" encoding="utf-8"?>
<!-- Generator: Adobe Illustrator 18.1.1, SVG Export Plug-In . SVG Version: 6.00 Build 0)  -->
<!DOCTYPE svg PUBLIC "-//W3C//DTD SVG 1.1//EN" "http://www.w3.org/Graphics/SVG/1.1/DTD/svg11.dtd">
<svg version="1.1" id="Layer_1" xmlns="http://www.w3.org/2000/svg" xmlns:xlink="http://www.w3.org/1999/xlink" x="0px" y="0px"
	 viewBox="0 0 20.8 20.8" enable-background="new 0 0 20.8 20.8" xml:space="preserve">
<path fill="#FFFFFF" d="M8.8,20.8c-0.2-0.1-0.4-0.2-0.5-0.3c-0.3-0.4-0.2-0.9,0.3-1.2c0.3-0.2,0.6-0.4,0.9-0.6
	c-2.6-1.4-5.2-2.7-7.8-4.1c0,0.2,0,0.4,0,0.6c0,0.3-0.1,0.5-0.3,0.7c-0.2,0.2-0.5,0.2-0.8,0.1c-0.3-0.1-0.5-0.3-0.5-0.6
	c0-0.6,0.1-1.2,0.2-1.8c0.2-1,0.6-2,1.2-2.8c0.6-0.9,1.5-1.3,2.5-1.5C4.9,9,5.9,8.9,6.8,9c2,0.2,3.9,0.4,5.9,0.6
	c0.9,0.1,1.8,0,2.7,0.1c0,0,0.1,0,0.2,0c-2-1.5-4-2.9-6-4.4c0,0.5,0.1,0.9,0.3,1.3c0.2,0.3,0.4,0.6,0.6,0.9c0.3,0.4,0.3,0.9-0.1,1.2
	c-0.3,0.2-0.7,0.2-1,0C9.1,8.2,8.8,7.7,8.6,7.2C7.9,5.6,7.9,4.1,8.8,2.6c0.3-0.6,0.8-1,1.3-1.4c0.4-0.3,0.8-0.6,1.3-0.9
	c0.2-0.1,0.4-0.2,0.7-0.3c0,0,0,0,0,0c0,0,0.1,0,0.1,0c0.3,0.1,0.5,0.3,0.6,0.6c0.1,0.3-0.1,0.6-0.3,0.8c-0.1,0.1-0.3,0.2-0.4,0.3
	c2.4,1.4,4.7,2.7,7.1,4.1c0-0.1,0.1-0.3,0.1-0.4C19.4,4.9,20,4.7,20.5,5c0.2,0.1,0.2,0.3,0.3,0.5c0,0.1,0,0.1,0,0.2
	c-0.1,0.2-0.1,0.5-0.2,0.7c-0.3,1.2-0.9,2.2-1.7,3.2c-0.4,0.5-0.8,0.9-1.4,1.2c-0.9,0.4-1.8,0.5-2.8,0.5c-1.8,0-3.5-0.2-5.3-0.4
	c-1.2-0.1-2.5-0.2-3.7-0.3c-0.2,0-0.4,0-0.6,0c0,0,0,0,0,0c2,1.4,4,2.8,6.1,4.2c0-0.2,0-0.4,0-0.5c-0.1-0.5-0.1-0.9-0.2-1.4
	c0-0.3,0.1-0.5,0.3-0.6c0.5-0.4,1.2,0,1.3,0.6c0.1,0.7,0.2,1.4,0.3,2.1c0.1,0.7,0.1,1.4-0.2,2.1C12,18.8,10.7,20,9,20.8
	C8.9,20.8,8.9,20.8,8.8,20.8z M11,16.9c0.1-0.3,0.1-0.6,0.2-0.9c0-0.1-0.1-0.2-0.1-0.2c-2.4-1.6-4.7-3.2-7.1-4.8
	c-0.1,0-0.2-0.1-0.2-0.1C3.3,11,3,11.3,2.7,11.7C5.5,13.4,8.2,15.1,11,16.9z M10.6,17.5c-2.8-1.7-5.6-3.4-8.4-5.2
	c-0.1,0.4-0.3,0.8-0.4,1.2c-0.1,0.2,0,0.2,0.1,0.3c2.6,1.4,5.3,2.8,7.9,4.2c0.1,0,0.1,0.1,0.2,0.1C10.3,17.9,10.4,17.7,10.6,17.5z
	 M18.9,6.7c-0.7-0.4-1.3-0.7-1.9-1.1c-1.8-1.1-3.7-2.1-5.5-3.2c-0.1,0-0.2-0.1-0.2-0.1c-0.2,0.2-0.4,0.3-0.7,0.5
	c2.6,1.7,5.1,3.4,7.6,5.1C18.5,7.5,18.7,7.1,18.9,6.7z M17.8,8.5c-2.6-1.7-5.1-3.4-7.7-5.1C10,3.7,9.9,3.9,9.8,4.1
	c-0.1,0.1,0,0.2,0.1,0.3c0.5,0.3,0.9,0.7,1.4,1c1.7,1.3,3.5,2.6,5.2,3.9c0.1,0.1,0.2,0.1,0.3,0C17.2,9.2,17.5,8.8,17.8,8.5z"/>
</svg>
