<?xml version="1.0" encoding="utf-8"?>
<!-- Generator: Adobe Illustrator 18.1.1, SVG Export Plug-In . SVG Version: 6.00 Build 0)  -->
<!DOCTYPE svg PUBLIC "-//W3C//DTD SVG 1.1//EN" "http://www.w3.org/Graphics/SVG/1.1/DTD/svg11.dtd">
<svg version="1.1" id="Layer_1" xmlns="http://www.w3.org/2000/svg" xmlns:xlink="http://www.w3.org/1999/xlink" x="0px" y="0px"
	 viewBox="0 0 207.6 209.2" enable-background="new 0 0 207.6 209.2" xml:space="preserve">
<path fill="#FFFFFF" d="M155.3,112.5c-2.1-5.4-3.9-10.9-5.8-16.5c-0.6-1.9-1.6-2.7-3.6-2c-1.6,0.5-3.3,0.4-4.9,1
	c-7.6,2.7-14.2,2.3-18.1-6c-0.2-0.4-0.6-0.9-1-1.1c-11-5.6-10.9-14.6-7.3-24.6c0.8-2.3,0.1-3.6-2.3-4.4c-4-1.2-7.9-2.7-11.8-4
	c-6.5-2.3-7-2.5-9.7,3.9c-3.3,7.9-8.1,10.3-17,11.8c-11.8,1.9-19.1-0.4-24.8-10.2c-1.2-2.1-2.8-2.3-4.9-0.8
	c-3.1,2.2-6.4,4.1-9.7,6.2c-6.6,4.2-7.1,4.4-3.4,11.4c3.9,7.2,4.6,13.2-2.1,19.1c-3.8,3.4-3.5,10.7-8,12.7
	c-4.4,1.9-10.2,0.9-15.3,0.9c-2.6,0-3.4,1.2-3.6,3.6c-0.5,5.3-1,10.6-1.8,15.9c-0.4,2.7,0.7,3.5,2.9,4.1c4.2,1,8.3,2.4,12.5,3.2
	c2.6,0.5,3.6,1.9,4,4.2c0.9,6.3,3,12.3,6.2,17.8c1.1,2,1.1,3.5-0.4,5.4c-2.8,3.5-5.3,7.3-8,10.8c-1.4,1.7-1.6,2.9,0.2,4.5
	c4,3.7,7.9,7.6,11.7,11.7c1.8,1.9,3.1,1.8,5,0.3c3.5-2.8,7.3-5.2,10.8-8c1.7-1.4,3.1-1.4,4.9-0.4c5.6,3.3,11.8,5.4,18.2,6.5
	c2.3,0.4,3.4,1.3,3.9,3.6c1,4.4,2.4,8.7,3.5,13c0.5,1.8,1,3.2,3,2.7c4.3-0.5,8.2-0.8,12.2-1.3c8.1-1,8.6-1.1,8.1-9.3
	c-0.5-7.9,1.4-13.4,9.7-15.5c0.8-0.2,1.7-0.6,2.1-1.2c7.4-9.2,15.7-7.1,24.2-1.8c2.7,1.7,4.7,1.4,6.3-1.8c1.7-3.4,3.7-6.8,6.1-9.7
	c3.6-4.4,3.4-7.5-1.6-10.4c-7.7-4.5-11-10.5-7.1-19.5c1.9-4.5-1.7-10.7,1.8-14.2c3.4-3.5,8.8-5.1,13.4-7.5
	C155.2,115.4,156.2,114.7,155.3,112.5z M78.6,150.5c-11.8,0.1-21.6-9.8-21.4-21.7c0.2-11.4,9.8-20.9,21.2-20.9
	c11.7,0,21.4,9.6,21.4,21.2C99.7,140.9,90.3,150.4,78.6,150.5z"/>
<path fill="#FFFFFF" d="M207.1,45.1c-1-3.1-1.2-6.5-1.5-9.8c-0.3-3.6-1.7-4.9-5.4-4.1c-6.1,1.3-11.8,1.1-14.8-6
	c-0.8-1.8-2.8-3.4-4.6-4.4c-4.3-2.4-6.4-5.5-4.9-9.7c0.2-8.6,0.2-8.6-7.3-10c-1.6-0.3-3.4-0.1-4.9-0.7c-5.7-2.3-7.7,0.4-8.3,5.6
	c-0.6,5.2-2.7,8.8-8.5,9.7c-3.1,0.4-6,2.3-8.2,4.5c-2.7,2.5-5.1,2.6-8.4,1.2c-9-3.8-9-3.6-13.4,5c-4.4,8.7-4.5,8.9,3.6,13.9
	c2.9,1.8,4.6,3.5,4.2,7.4c-0.5,4.3,0.3,8.6,2.1,12.7c0.9,2.1,1.1,3.8-0.7,5.8c-2.6,2.8-6.6,6.1-6.4,9c0.2,2.9,4.7,5.6,7.4,8.3
	c5.3,5.4,5.5,5.5,10.9,0.7c3.6-3.1,6.7-5.4,11.7-2.6c2.8,1.6,6.5,1.8,9.8,1.3c3.6-0.5,5.7,0.9,7.5,4c5.2,8.5,5.3,8.4,14.2,3.8
	c8.3-4.3,8.4-4.3,4.7-13.3c-1.3-3.2-1.5-5.7,1.1-8.5c2.8-2.9,4.7-6.7,5.3-10.6c0.7-3.7,2.7-4.9,5.9-5.5c1.5-0.2,2.9-0.9,4.3-1.1
	C206.5,51,208.6,49.7,207.1,45.1z M159.5,62.7c-8.4,0.1-15-6.3-15-14.6c0-8.4,6.4-14.8,14.9-14.7c8.1,0.1,14.5,6.5,14.5,14.6
	C173.9,56,167.6,62.6,159.5,62.7z"/>
</svg>
